<svg xmlns="http://www.w3.org/2000/svg" width="370" height="153" fill="#D7B46A" viewBox="0 0 370 153">
  <path fill-rule="evenodd" d="M64.937 151.515c.349 1.008.504 1.435.892 1.435.466 0 .66-.466 1.397-2.056 1.667-3.568 6.826-17.338 7.563-19.316h.078l8.067 19.471c.582 1.435.815 1.901 1.203 1.901.504 0 .698-.466 1.125-1.823 1.9-5.818 5.973-18.153 7.757-23.04.815-2.211 1.242-3.763 2.172-4.112.427-.155.97-.194 1.358-.194.35 0 .543-.116.543-.387 0-.233-.271-.311-.698-.311-1.28 0-2.948.117-3.22.117-.349 0-1.978-.117-4.033-.117-.582 0-.893.078-.893.349 0 .233.272.349.66.349 1.513 0 1.862.543 1.862 1.164 0 .543-.117 1.358-.388 2.25-1.358 4.538-4.46 14.778-5.16 17.377h-.115l-8.068-19.549c-.505-1.242-.698-1.823-1.125-1.823-.31 0-.582.31-.97 1.396l-7.525 20.247h-.116c-.698-2.172-4.305-13.925-4.965-16.485-.465-1.745-.853-3.064-.853-3.568 0-.427.077-.698.427-.853.27-.156.659-.156.97-.156.387 0 .697-.038.697-.349 0-.232-.271-.349-.814-.349-2.25 0-3.956.117-4.306.117-.349 0-2.482-.117-4.5-.117-.542 0-.852.078-.852.349 0 .311.232.349.62.349.35 0 1.125.078 1.552.35.543.387.97 1.318 1.435 2.753l8.223 24.631Zm46.158-8.999h-8.65c-.194 0-.272.078-.349.31l-2.095 5.314c-.388.97-.582 1.901-.582 2.366 0 .699.35 1.203 1.552 1.203h.582c.465 0 .582.077.582.31 0 .31-.233.388-.66.388-1.241 0-2.909-.116-4.111-.116-.427 0-2.56.116-4.577.116-.504 0-.737-.078-.737-.388 0-.233.155-.31.465-.31.35 0 .892-.039 1.203-.078 1.784-.233 2.52-1.551 3.296-3.491l9.736-24.048c.466-1.125.698-1.552 1.086-1.552.349 0 .582.349.97 1.241.931 2.134 7.137 17.649 9.619 23.545 1.474 3.491 2.599 4.034 3.414 4.228a8.526 8.526 0 0 0 1.629.155c.31 0 .504.038.504.31 0 .31-.349.388-1.784.388-1.397 0-4.228 0-7.331-.078-.698-.038-1.164-.038-1.164-.31 0-.233.156-.31.543-.349.272-.078.544-.427.35-.892l-3.103-7.991c-.078-.193-.194-.271-.388-.271Zm-7.874-1.939h7.137c.194 0 .232-.117.194-.233l-3.491-9.542c-.039-.155-.078-.349-.194-.349-.117 0-.194.194-.233.349l-3.568 9.503c-.039.155 0 .272.155.272Zm27.461.581c0 3.569 0 6.633-.193 8.262-.117 1.125-.35 1.978-1.125 2.134a6.37 6.37 0 0 1-1.397.155c-.465 0-.62.116-.62.31 0 .272.271.388.775.388 1.552 0 3.996-.116 4.888-.116 1.086 0 3.529.116 6.089.116.427 0 .737-.116.737-.388 0-.194-.194-.31-.62-.31-.582 0-1.435-.078-1.979-.155-1.163-.156-1.396-1.009-1.512-2.095-.194-1.668-.194-4.732-.194-8.301v-15.903l4.887.117c3.452.077 4.499 1.164 4.577 2.172l.039.426c.039.582.116.776.427.776.232 0 .31-.232.349-.62 0-1.009.116-3.685.116-4.5 0-.582-.039-.814-.31-.814-.155 0-.466.077-1.047.194-.582.077-1.436.194-2.677.194h-15.36a40.67 40.67 0 0 1-3.879-.194c-.97-.078-1.357-.466-1.668-.466-.232 0-.349.233-.465.737-.078.31-.815 3.84-.815 4.461 0 .427.078.62.349.62.233 0 .35-.155.427-.465.078-.31.272-.776.66-1.357.581-.854 1.512-1.048 3.762-1.126l5.779-.155v15.903Zm24.631 8.999c5.469-8.339 11.365-17.222 16.717-25.91.156-.272.311-.504.311-.737 0-.194-.272-.31-.66-.31h-11.83c-1.59 0-3.452.039-7.137-.117-.97-.039-1.202-.271-1.552-.271-.232 0-.387.194-.465.737-.194 1.163-.776 4.693-.776 5.585 0 .466.039.66.31.66.233 0 .388-.156.466-.699.116-.892.815-2.327 2.094-3.025 1.242-.698 3.608-.815 5.586-.815h7.602c-5.197 8.185-10.938 16.951-16.407 25.484-.465.698-.582.892-.582 1.164 0 .271.233.388.66.388 7.835 0 14.351.193 20.829.193.698 0 .97-.31 1.163-1.008.272-.97.776-3.491.776-4.732 0-.931-.077-1.202-.388-1.202-.233 0-.31.232-.388.62a6.92 6.92 0 0 1-.698 1.862c-.62 1.163-2.133 2.133-6.089 2.133h-9.542Zm22.885-1.629c-.194 1.319-.505 2.832-1.591 3.064-.582.117-.853.117-1.163.117-.388 0-.621.077-.621.271 0 .349.31.427.698.427 1.241 0 3.103-.116 3.84-.116.698 0 2.444.116 4.073.116.582 0 .931-.078.931-.427 0-.194-.272-.271-.582-.271-.388 0-.931-.039-1.629-.194-.659-.155-1.164-.505-1.164-1.241 0-.621.039-1.125.117-1.824l2.017-15.127h.155c1.358 2.909 3.685 7.486 4.034 8.301.465 1.086 3.529 7.021 4.46 8.805.621 1.163 1.009 1.939 1.358 1.939.349 0 .543-.349 1.435-2.172l8.456-17.3h.155l2.327 16.873c.155 1.086.039 1.591-.194 1.668-.271.117-.426.233-.426.427 0 .233.232.349 1.125.427 1.551.116 6.904.193 7.873.193.544 0 1.009-.116 1.009-.426 0-.233-.272-.272-.621-.272-.504 0-1.28-.039-2.405-.388-1.163-.349-1.551-1.474-1.9-3.917l-3.53-23.738c-.116-.815-.349-1.203-.698-1.203s-.543.31-.853.931l-10.55 21.838-10.59-21.566c-.504-1.009-.737-1.203-1.047-1.203-.31 0-.543.349-.659 1.009l-3.84 24.979Zm53.449-6.012h-8.65c-.193 0-.271.078-.349.31l-2.094 5.314c-.388.97-.582 1.901-.582 2.366 0 .699.349 1.203 1.552 1.203h.581c.466 0 .582.077.582.31 0 .31-.232.388-.659.388-1.241 0-2.909-.116-4.112-.116-.426 0-2.56.116-4.577.116-.504 0-.737-.078-.737-.388 0-.233.156-.31.466-.31.349 0 .892-.039 1.202-.078 1.785-.233 2.522-1.551 3.297-3.491l9.736-24.048c.465-1.125.698-1.552 1.086-1.552.349 0 .582.349.97 1.241.931 2.134 7.137 17.649 9.619 23.545 1.474 3.491 2.599 4.034 3.413 4.228a8.543 8.543 0 0 0 1.63.155c.31 0 .504.038.504.31 0 .31-.349.388-1.785.388-1.396 0-4.227 0-7.33-.078-.698-.038-1.164-.038-1.164-.31 0-.233.155-.31.543-.349.272-.078.543-.427.349-.892l-3.103-7.991c-.078-.193-.194-.271-.388-.271Zm-7.874-1.939h7.137c.194 0 .233-.117.194-.233l-3.491-9.542c-.038-.155-.077-.349-.193-.349-.117 0-.195.194-.233.349l-3.569 9.503c-.039.155 0 .272.155.272Zm26.583-9.62h.116c.699.737 5.004 5.469 9.226 9.658 4.033 3.996 8.998 9.077 11.435 11.404.427.427.892.853 1.319.853.349 0 .504-.349.504-1.202l.427-24.475c.039-2.172.349-2.987 1.435-3.297.466-.117.776-.117 1.164-.117.465 0 .698-.116.698-.349 0-.31-.388-.349-.892-.349-1.901 0-3.374.117-3.801.117-.815 0-2.676-.117-4.687-.117-.582 0-1.008.039-1.008.349 0 .233.155.349.62.349.543 0 1.474 0 2.049.233.931.388 1.28 1.125 1.319 3.491l.388 17.416h-.194c-.659-.621-5.889-6.206-8.527-8.844a616.965 616.965 0 0 1-12.018-12.334c-.665-.699-1.015-1.203-1.441-1.203-.388 0-.505.543-.505 1.319l-.349 22.846c-.038 3.375-.193 4.5-1.202 4.81-.543.155-1.241.194-1.746.194-.387 0-.62.077-.62.31 0 .349.349.388.853.388 2.017 0 3.84-.116 4.189-.116.744 0 2.295.116 4.817.116.543 0 .892-.078.892-.388 0-.233-.233-.31-.66-.31-.62 0-1.357-.039-2.017-.272-.775-.271-1.28-1.28-1.357-4.305l-.427-16.175Zm36.732 0h.117c.698.737 5.003 5.469 9.225 9.658 4.033 3.996 8.998 9.077 11.436 11.404.426.427.892.853 1.318.853.349 0 .505-.349.505-1.202l.426-24.475c.039-2.172.349-2.987 1.435-3.297.466-.117.776-.117 1.164-.117.465 0 .698-.116.698-.349 0-.31-.388-.349-.892-.349-1.901 0-3.374.117-3.801.117-.815 0-2.676-.117-4.687-.117-.582 0-1.008.039-1.008.349 0 .233.155.349.62.349.543 0 1.474 0 2.049.233.931.388 1.281 1.125 1.319 3.491l.388 17.416h-.194c-.659-.621-5.889-6.206-8.527-8.844a612.562 612.562 0 0 1-12.017-12.334c-.666-.699-1.016-1.203-1.442-1.203-.388 0-.504.543-.504 1.319l-.349 22.846c-.039 3.375-.194 4.5-1.203 4.81-.543.155-1.241.194-1.745.194-.388 0-.621.077-.621.31 0 .349.349.388.853.388 2.017 0 3.841-.116 4.19-.116.743 0 2.295.116 4.816.116.543 0 .892-.078.892-.388 0-.233-.233-.31-.66-.31-.62 0-1.357-.039-2.016-.272-.776-.271-1.281-1.28-1.358-4.305l-.427-16.175Zm-123.32-21.605c1.714 0 2.15-.082 2.367-.816.272-.925.789-3.455.789-3.89 0-.272-.027-.517-.218-.517-.163 0-.244.109-.326.435-.326 1.279-1.224 2.204-3.101 2.421-1.007.136-4.217.164-4.679.164h-1.85c-.136 0-.191-.082-.055-.191 3.51-2.802 9.359-7.4 9.359-12.677 0-3.183-2.041-5.794-6.829-5.794-2.394 0-3.863.49-4.924 1.033-.299.19-.326.3-.326.544 0 .79.136 3.047.163 3.292.027.327.109.517.245.517.272 0 .354-.245.354-.517 0-.707.489-1.986 1.142-2.612.816-.761 1.714-.979 2.884-.979 1.36 0 3.727.87 3.727 5.169 0 5.74-5.414 9.984-9.222 13.33-.272.245-.544.49-.544.707 0 .218.19.381.38.381h10.664Zm10.474-20.403c-2.884 0-3.51-.272-3.673-.272-.163 0-.272.109-.272.38 0 .273-.408 3.456-.408 4.462 0 .272.027.408.218.408.163 0 .245-.136.272-.353.054-.436.408-1.306.897-1.632.654-.436 1.796-.49 2.558-.49h7.045c-3.754 6.284-7.236 14.309-7.998 16.921-.135.435-.19.843-.19 1.115 0 .245.082.326.381.326 1.224 0 3.428-1.115 3.428-1.659 0-.354-.055-.544 0-1.006.408-3.483 4.652-14.283 6.909-17.493.082-.108.191-.326.191-.49 0-.135-.136-.217-.653-.217h-8.705Zm17.084 12.214c.027 2.612-.028 4.925-.136 6.121-.082.871-.218 1.252-1.089 1.442-.489.109-1.876.19-2.176.19-.109 0-.218.082-.218.273 0 .19.164.245.463.245 1.741 0 4.026-.082 4.652-.082.734 0 2.475.082 4.543.082.299 0 .435-.055.435-.245 0-.191-.136-.273-.245-.273-.217 0-1.387-.081-1.795-.162-.871-.191-1.007-.599-1.088-1.47-.109-1.196-.109-3.509-.109-6.121v-5.032c0-4.162.163-6.856.163-7.073 0-.272-.082-.571-.326-.571-.218 0-.463.19-.708.353-.952.708-6.175 4.135-6.284 4.19-.136.081-.272.217-.272.38 0 .164.136.3.218.3.109 0 .245-.055.381-.11.598-.244 2.638-1.305 3.155-1.305.408 0 .408.326.408.98v3.563l.028 4.325Zm15.451 8.651c5.305 0 8.597-3.183 8.597-6.991 0-3.292-2.83-4.897-4.843-5.36v-.053c1.088-.382 3.972-2.231 3.972-4.897 0-1.279-.952-4.026-6.175-4.026-2.258 0-3.89.57-4.815.979-.354.163-.381.272-.381.517 0 .625.082 1.85.19 2.72.028.3.109.381.218.381.136 0 .245-.082.245-.408 0-1.605 1.632-2.884 3.781-2.884 2.775 0 3.618 2.204 3.618 3.346 0 3.183-2.992 4.434-4.216 4.68-.3.054-.49.19-.49.38 0 .218.163.327.87.463 1.334.245 4.598 1.523 4.598 5.168 0 3.238-2.231 4.652-4.924 4.652-2.747 0-4.081-1.877-4.081-3.618 0-.217-.081-.38-.244-.38-.163 0-.245.19-.3.516-.108.599-.19 2.122-.19 3.401 0 .326.054.544.463.761.625.354 2.176.653 4.107.653ZM5.78 63.702c.787-.687 2.529-1.552 3.09-1.898.548-.338 2.17-1.373 2.261-2.066.04-.308.264-.545.527-.593.318-.122.905-.73 1.09-1.015a.69.69 0 0 1 .567-.323l.553-.023a.692.692 0 0 1 .344-.585l.324-.194.097-.546a.69.69 0 0 1 .426-.53l.224-.09c.02-.176.08-.348.191-.508.392-.565 1.202-.643 1.885-.587.35-.383.779-.699 1.31-.762.356-.043.512.042.764.08.076-.13.16-.356.191-.447a.685.685 0 0 1 .383-.413c.942-.416 1.859-.727 2.893-.412a.684.684 0 0 1 .42.345l.152.286c2.239-1.374 5.527-.748 7.776.269.318.143.76.327 1.112.198.213-.08.45-.249.642-.371a6.16 6.16 0 0 1 1.19-.61c1.195-.444 2.606-.477 3.922-.37a.696.696 0 0 1 .25-.519c1.708-1.458 3.58-2.542 5.83-1.655 2.091.823 2.83 1.915 5.056.873 0-1.047.812-1.521 1.818-1.11.402-.222.787-.417 1.27-.487a.71.71 0 0 1 .295.019c.562-1.677 4.618-2.153 6.292-2.523.422-.52 1.036-.668 1.649-.54l.115-.277a.692.692 0 0 1 .528-.426l4.987-.907c.046-.159.118-.312.217-.453.412-.586 1.135-.83 1.782-.73a.708.708 0 0 1 .382-.317c1.697-.593 4.248-1.471 5.898-.331.414.285.758.672 1.084 1.07.44-.285 1.013-.323 1.446.03a.705.705 0 0 1 .439-.324.7.7 0 0 1 .788.338c.155.273.296.554.439.833 2.407-.535 4.892-1.977 6.567-3.735-.12-.289-.208-.448-.131-.851.099-.522.52-1.025.922-1.424a3.031 3.031 0 0 1 .04-.675 3.82 3.82 0 0 1 .351-1.05c.225-.453 1.057-1.59 1.75-2.16.005-.441.066-.585.306-1.111a.695.695 0 0 1 .645-.415h.761c.751-.897 2.212-.992 2.952-1.963.868-1.39 2.927-2.433 4.529-1.814.468.18.6-.175 1.107-.017.328.102.513.386.624.724.263-.322.545-.685.953-.911a.7.7 0 0 1 .174-.254.687.687 0 0 1 .518-.194c.367.016 1.64.114 1.978-.026.223-.092.554-.352.761-.49.609-.405 1.247-.76 1.899-1.09.294-.908 1.109-1.389 2.105-1.15.653.138.835-2.266 2.804-2.562a.686.686 0 0 1 .554.152 2.26 2.26 0 0 1 .956-.414c.071-.028.214-.162.269-.213l.031-.027c.434-.36.714-.758.949-1.265.452-.978.658-1.864 1.259-2.816.926-1.467 2.36-2.522 3.855-3.36 1.139-1.473 3.292-2.23 5.03-2.646 1.392-.333 2.844-.528 4.271-.63.392-.028 1.613-.12 2.153-.053.391-.008.752.056 1.096.26.408.241.748.659 1.164.942.853.578 2.034.934 3.022 1.18a.625.625 0 0 1 .069.02c2.767.996 3.735 6.15 3.886 8.654l.001.033c.026 1.904.017 4.057 1.254 5.62 1.488 1.88 1.729 3.571 1.921 5.93.336.876 1.208 1.18 1.533 2.451.048.212.281 1.31.442 1.447.179.074 1.095-.17 1.261-.213.171-.05.35-.06.526-.024 1.357.276 1.528 3.052 1.665 4.486.103-.044.208-.09.278-.114.444-.148.877-.15 1.328.075 1.67.917 3.475 1.568 5.218 2.329 2.082-.809 4.265-1.298 6.368-2.04.363-.543 1.029-2.2 1.291-2.754.411-.867 1.22-2.593 2.075-3.064a.714.714 0 0 1 .061-.03c.378-.163.782-.193 1.165-.027.641.277.756.76 1.129 1.174.562.253.794.104 1.359.23.804.178 1.228.963 1.559 1.645.758 1.558 1.381 3.393 1.963 5.06.164.032.317.074.512.122.218-.06.648-.278.827-.36a261.82 261.82 0 0 1 3.002-1.357.704.704 0 0 1 .882.264c.555.862 1.372 1.725 2.081 2.466.711.743 1.446 1.462 2.161 2.201.209.216.552.544.817.895a9.954 9.954 0 0 0 2.089-.92.687.687 0 0 1 .212-.085c2.106-.466 4.302-.636 6.367-1.27.369-.503.917-1.288 1.338-1.597.182-.133.394-.24.589-.355.409-.241.803-.514 1.188-.79a.69.69 0 0 1 .685-.08l.397.164c.989-.415 2.026-.283 3.056-.05 1.084-.932 2.308-1.659 3.429-2.54.927-2.268 3.225-2.232 4.514-3.554-.1-1.654 1.719-3.998 2.59-5.126.685-.887 1.403-1.746 2.108-2.617.219-.27.928-1.116 1.057-1.436a.688.688 0 0 1 .37-.492c1.465-.756 1.964-1.782 3.681-1.265.681-.793 1.241-1.703 1.879-2.527a.697.697 0 0 1 .124-.125c1.279-1 2.576-.64 3.947-.985.86-.605 1.498-1.454 2.759-1 .121.045.441-.15.683-.307.348-.864 1.12-1.16 1.992-1.14.439-.701.872-1.462 1.159-2.22.167-.44.24-.853.373-1.293.477-1.573 3.025-3.613 4.208-4.643.401-.351 1.099-1.354 1.436-1.8.879-1.164 1.744-2.34 2.611-3.513.932-1.262 1.863-2.528 2.821-3.77.326-.424.657-.851 1.005-1.258.279-.327.624-.763 1.111-.693 1.183.17 2.372 1.21 3.274 1.946.631.516 1.898 1.606 2.761 1.548.439-.03.773-.357 1.024-.69a.692.692 0 0 1 .669-.276c.606.088 1.87.24 2.445-.069.278-.15.449-.523.671-.757.464-.49 1.062-.572 1.681-.507 1.218-1.115 1.502-2.874 2.642-3.666.398-.277.847-.4 1.33-.404.039 0 .073.002.112.008.711.108 4.723 2.495 5.47 2.923a969.602 969.602 0 0 1 10.557 6.142 1326.47 1326.47 0 0 1 10.534 6.258c1.186.713 2.371 1.427 3.548 2.152.39.24 1.291.744 1.607 1.05a.826.826 0 0 1 .042.044c.756.869 1.726 1.557 2.568 2.342.151.14.228.318.226.524a.784.784 0 0 1-.022.177c2.704 1.583 5.497 3.33 7.135 6.065.52.87 4.561 2.693 5.586 3.214 1.848.94 5.296 2.678 5.704 5.007 4.429 3.658 14.184 7.866 19.591 9.625 2.948.959 6.02 2.68 8.725 4.197 2.805 1.572 5.745 3.383 8.679 4.672 1.516.666 3.169 1.72 4.579 2.596a215.326 215.326 0 0 1 6.531 4.24 258.609 258.609 0 0 1 5.926 4.092c1.405 1.001 2.849 2.032 4.181 3.126a.71.71 0 0 1 .099.997.71.71 0 0 1-.998.099c-1.308-1.074-2.727-2.086-4.105-3.068a256.717 256.717 0 0 0-5.893-4.07 214.914 214.914 0 0 0-6.488-4.212c-1.348-.837-2.953-1.865-4.402-2.502-2.981-1.31-5.953-3.137-8.801-4.733-2.616-1.466-5.622-3.16-8.471-4.087-5.695-1.852-15.803-6.238-20.285-10.072a.685.685 0 0 1-.247-.504c-.083-1.687-3.673-3.481-4.968-4.14-1.46-.742-5.354-2.403-6.159-3.749-1.629-2.72-4.705-4.445-7.369-5.997a.688.688 0 0 1-.348-.54.69.69 0 0 1 .079-.41c-.713-.617-1.45-1.198-2.081-1.912-.419-.323-1.065-.68-1.515-.956a380.11 380.11 0 0 0-3.548-2.15 1330.958 1330.958 0 0 0-10.359-6.153 997.007 997.007 0 0 0-10.319-6.007c-1.2-.687-2.402-1.372-3.615-2.037-.405-.223-1.121-.654-1.579-.83a.844.844 0 0 0-.428.147c-.385.267-.74 1.04-.958 1.45-.491.923-1.005 1.706-1.844 2.357a.685.685 0 0 1-.559.139c-.167-.03-.599-.113-.742.038-.397.418-.408.696-1.028 1.03-.813.438-1.977.393-2.926.277-.472.512-1.06.875-1.789.924-2.341.157-4.309-2.905-6.05-3.441-.405.423-1 1.251-1.275 1.612-.88 1.151-1.741 2.319-2.603 3.484-.87 1.179-1.738 2.36-2.621 3.529-.416.55-1.127 1.568-1.634 2.01-.835.728-3.442 2.863-3.782 3.986-.144.473-.224.906-.404 1.384-.373.986-.951 1.958-1.519 2.842a.696.696 0 0 1-.694.318c-.391-.054-.865-.121-.986.34a.683.683 0 0 1-.347.442c-.707.384-1.215.89-2.106.552-.459-.165-1.196.662-1.573.914a.68.68 0 0 1-.204.094c-1.039.29-2.64.117-3.499.716-.742.971-1.371 2.01-2.221 2.9a.697.697 0 0 1-.782.166c-.365-.15-.758-.264-1.14-.114-.473.186-1.07.703-1.613 1.035-.614 1.147-2.753 3.593-3.279 4.273-.534.691-2.561 3.362-2.282 4.268a.688.688 0 0 1-.123.65c-1.291 1.625-3.932 1.785-4.56 3.567a.684.684 0 0 1-.224.316c-1.228.989-2.631 1.783-3.791 2.85a.688.688 0 0 1-.648.166c-.853-.208-1.903-.467-2.72-.017a.687.687 0 0 1-.613.034l-.327-.135c-.317.221-.64.435-.972.631-.146.087-.338.18-.472.278-.268.196-.969 1.212-1.178 1.489a.685.685 0 0 1-.347.246c-2.156.7-4.401.872-6.603 1.349-.893.52-1.863.888-2.857 1.166a.689.689 0 0 1-.637-.131.687.687 0 0 1-.247-.393c-.182-.29-.775-.87-.99-1.09-.661-.676-1.334-1.34-1.987-2.023-.639-.667-1.335-1.408-1.901-2.176-.922.414-1.838.837-2.759 1.253-.386.174-.842.407-1.276.343-.338-.05-.521-.154-.92-.183a.696.696 0 0 1-.617-.471c-.172-.49-2.081-6.08-2.636-6.203-.146-.032-.402-.02-.562-.034a3.35 3.35 0 0 1-1.23-.361.658.658 0 0 1-.18-.13c-.161-.158-.627-.854-.759-.953a.476.476 0 0 0-.019.006c-.429.287-1.238 1.965-1.451 2.413-.307.649-1.256 3.09-1.849 3.388a.63.63 0 0 1-.077.033c-2.23.803-4.566 1.302-6.762 2.191a.686.686 0 0 1-.555-.01c-1.869-.833-3.792-1.51-5.578-2.492-.284-.141-1.385.902-2.182-.275a.72.72 0 0 1-.07-.132c-.078-.192-.096-.711-.116-.93-.045-.485-.1-.97-.179-1.451-.045-.272-.207-1.132-.395-1.475-2.345.576-2.741.034-3.273-2.313-.214-.838-1.165-1.332-1.526-2.41a.69.69 0 0 1-.034-.168c-.096-1.191-.258-2.632-.698-3.755-.243-.62-.525-.99-.93-1.501-1.475-1.864-1.528-4.168-1.559-6.464-.104-1.702-.437-3.546-1.124-5.114-.324-.739-.985-1.949-1.796-2.264-1.158-.29-2.443-.698-3.437-1.373-.369-.25-.781-.712-1.091-.896-.111-.065-.259-.065-.383-.06a.667.667 0 0 1-.154-.01c-.574-.053-1.466.026-2.037.07-1.301.1-2.624.28-3.893.583-1.399.335-3.433.997-4.305 2.224a.678.678 0 0 1-.236.21c-1.317.726-2.659 1.657-3.476 2.95-.542.86-.754 1.754-1.17 2.654-.321.694-.727 1.257-1.315 1.748-.426.397-.585.474-1.145.58-.203.09-.767.772-.907.94a.697.697 0 0 1-.776.218.697.697 0 0 1-.428-.404c-.669.889-.951 2.383-2.59 2.036-.331-.08-.432.026-.481.357a.69.69 0 0 1-.387.532c-.701.345-1.39.716-2.041 1.148-.317.211-.651.474-1.002.62-.529.219-1.356.196-2.04.16a.71.71 0 0 1-.389.209c-.338.061-1.084 1.362-2.002 1.679a.687.687 0 0 1-.604-.068.688.688 0 0 1-.33-.51c-.018-.141-.046-.406-.083-.643-.303.043-.566.015-.96-.137-.954-.369-2.334.453-2.828 1.26a.6.6 0 0 1-.035.053c-.913 1.234-2.635 1.52-3.042 2.082a.415.415 0 0 0-.041.07.695.695 0 0 1-.642.408h-.676c-.012.081-.003.192.003.46a.703.703 0 0 1-.333.62c-.807.583-2.008 1.951-1.788 3.039a.691.691 0 0 1-.212.66c-.147.136-.68.652-.753.88.178.539.372.768-.067 1.391a.638.638 0 0 1-.06.074c-1.417 1.528-8.748 6.658-10.117 3.424a.693.693 0 0 1-.446.422.696.696 0 0 1-.76-.217c-.393-.465-.892-1.19-1.386-1.531-.128-.089-10.35 2.63-11.827 2.898l-.23.555a.687.687 0 0 1-.43.4.687.687 0 0 1-.585-.061c-.195-.116-.49-.262-.629-.01a.685.685 0 0 1-.443.345c-1.007.26-2.096.389-3.136.654-.414.106-2.08.572-2.392.966.09.238.05.495-.114.696-.52.638-1.278.814-1.758.405-.25.11-.5.266-.71.38a.692.692 0 0 1-.714-.02.7.7 0 0 1-.362.74c-1.29.7-2.612 1.028-4.05.606-.965-.283-1.715-.836-2.622-1.193-1.534-.604-2.853.161-4.029 1.113l.112.342a.691.691 0 0 1-.13.673.69.69 0 0 1-.637.249c-1.318-.175-3.029-.296-4.306.178-.689.256-1.196.746-1.836.982-.754.277-1.48.082-2.184-.237-1.932-.873-5.228-1.586-6.944.022a.687.687 0 0 1-.6.182.688.688 0 0 1-.51-.366l-.388-.728c-.468-.055-.936.105-1.374.29-.22.53-.556 1.04-1.18 1.104-.832.087-.747-.48-1.45.439a.693.693 0 0 1-.674.27 3.69 3.69 0 0 0-.79-.036.685.685 0 0 1-.047.439.686.686 0 0 1-.418.381c-.11.038-.22.078-.33.119l-.085.474a.685.685 0 0 1-.334.484l-.234.14.013.23a.683.683 0 0 1-.183.515.684.684 0 0 1-.496.232l-.931.037c-.329.404-.82.872-1.279 1.132-.424 1.143-1.88 2.091-2.817 2.67-.522.32-2.538 1.371-2.924 1.74a.696.696 0 0 1-.625.358c-1.589-.018-4.82 1.922-4.64 3.826a.71.71 0 0 1-.638.772.71.71 0 0 1-.772-.638 3.268 3.268 0 0 1 .078-1.082c.51-2.106 3.52-4.13 5.687-4.285Z" clip-rule="evenodd"/>
  <path fill-rule="evenodd" d="M65.956 46.86c-.294 0-.532-.147-.532-.33 0-.181.238-.329.532-.329H95.7c.293 0 .531.148.531.33 0 .182-.238.33-.531.33H65.956Zm0-.967c-.16 0-.29-.08-.29-.18 0-.099.13-.18.29-.18h12.12c.16 0 .29.081.29.18 0 .1-.13.18-.29.18h-12.12Zm0-.654c-.16 0-.29-.08-.29-.18 0-.099.13-.18.29-.18h12.12c.16 0 .29.081.29.18 0 .1-.13.18-.29.18h-12.12Zm-4.908 2.6c-.295 0-.535-.147-.535-.327 0-.18.24-.327.535-.327h33.017c.295 0 .535.147.535.327 0 .18-.24.327-.535.327H61.048Zm-4.372 1.443a.46.46 0 0 1-.457-.462.46.46 0 0 1 .457-.461h36.407a.46.46 0 0 1 .457.461.46.46 0 0 1-.457.462H56.676Zm-3.509 1.174a.326.326 0 0 1-.323-.327c0-.18.145-.327.323-.327h37.954c.178 0 .324.146.324.327 0 .18-.145.327-.324.327H53.167Zm-2.98 1.309a.329.329 0 0 1 0-.656H91.12a.328.328 0 0 1 0 .656H50.187Zm-11.716 1.798a.488.488 0 0 1-.485-.49c0-.272.217-.491.485-.491h53.304c.268 0 .486.22.486.49s-.218.49-.486.49H38.471Zm-5.903.981a.326.326 0 0 1-.323-.327c0-.18.145-.327.323-.327h58.88c.179 0 .324.147.324.327 0 .18-.145.327-.324.327h-58.88Zm-16.606 1.472a.327.327 0 0 1 0-.654h76.14a.327.327 0 0 1 0 .654h-76.14Zm-1.58 2.147a.683.683 0 0 1-.69-.675c0-.373.31-.676.69-.676h77.72c.381 0 .69.303.69.676a.683.683 0 0 1-.69.675h-77.72Zm-.019 1.124a.33.33 0 0 1-.334-.328c0-.18.15-.327.334-.327h78.066a.33.33 0 0 1 .334.328.33.33 0 0 1-.334.327H14.363Zm-2.938 1.827a.517.517 0 0 1-.514-.519c0-.286.23-.52.514-.52h82.313c.283 0 .513.233.513.52 0 .287-.23.52-.513.52H11.425Zm-1.361 1.116a.326.326 0 0 1-.324-.327c0-.18.145-.327.324-.327h86.945c.178 0 .323.147.323.327 0 .18-.145.327-.323.327H10.064Zm-1.089.982a.324.324 0 0 1-.321-.327c0-.18.144-.328.32-.328h94.903c.177 0 .321.147.321.328 0 .18-.144.327-.321.327H8.975Zm-2.632 1.5a.514.514 0 0 1-.509-.52c0-.286.228-.518.509-.518h100.15c.281 0 .509.232.509.519 0 .286-.228.52-.509.52H6.343ZM3.62 65.79a.29.29 0 0 1 0-.578h102.22a.289.289 0 1 1 0 .578H3.621Zm-1.57 1.256a.57.57 0 0 1-.576-.564.57.57 0 0 1 .576-.563h103.789a.57.57 0 0 1 .576.563.57.57 0 0 1-.576.564H2.049Zm-.88.706a.286.286 0 0 1-.282-.289c0-.159.127-.288.283-.288h105.977c.156 0 .282.13.282.288 0 .16-.126.289-.282.289H1.171Zm-.816.981a.29.29 0 0 1-.29-.288.29.29 0 0 1 .29-.288H109.11a.29.29 0 0 1 .291.288.29.29 0 0 1-.291.288H.354Zm.214 1.155a.454.454 0 0 1-.447-.462c0-.255.2-.461.447-.461h111.159c.247 0 .447.206.447.461s-.2.462-.447.462H.568Zm129.606-43.233a.283.283 0 0 1 0-.567h8.007a.284.284 0 1 1 0 .567h-8.007Zm0 .981a.283.283 0 0 1 0-.567h8.007a.284.284 0 1 1 0 .567h-8.007Zm0 1.308a.283.283 0 0 1 0-.567h8.007a.284.284 0 1 1 0 .567h-8.007Zm-.327 1.525a.5.5 0 0 1 0-1h9.915a.5.5 0 0 1 0 1h-9.915Zm-.327.765a.283.283 0 0 1 0-.567h10.321a.284.284 0 1 1 0 .567H129.52Zm.327 1.308a.283.283 0 0 1 0-.567h11.489a.283.283 0 0 1 0 .567h-11.489Zm.655.982a.284.284 0 1 1 0-.567h10.834a.283.283 0 0 1 0 .567h-10.834Zm-.328.98a.283.283 0 0 1 0-.566h10.935a.283.283 0 1 1 0 .566h-10.935Zm0 1.262a.4.4 0 0 1 0-.8h10.856a.4.4 0 0 1 0 .8h-10.856Zm-.654.701a.283.283 0 0 1 0-.567h11.431a.283.283 0 0 1 0 .567H129.52Zm-.327 1.308a.283.283 0 0 1 0-.567h13.342a.284.284 0 1 1 0 .567h-13.342Zm0 1.309a.283.283 0 0 1 0-.567h13.818a.284.284 0 1 1 0 .566h-13.818Zm.327 1.149a.45.45 0 0 1 0-.9h14.125a.45.45 0 1 1 0 .9H129.52Zm-.327 1.14a.283.283 0 0 1 0-.567h16.671a.283.283 0 0 1 0 .567h-16.671Zm0 1.308a.283.283 0 0 1 0-.567h17.616a.283.283 0 0 1 0 .567h-17.616Zm-.654.982a.283.283 0 0 1 0-.567h17.404a.283.283 0 0 1 0 .567h-17.404Zm0 .981a.283.283 0 0 1 0-.567h18.275a.284.284 0 1 1 0 .567h-18.275Zm-.327.981a.284.284 0 1 1 0-.567h19.395a.283.283 0 0 1 0 .567h-19.395Zm-.327.981a.284.284 0 1 1 0-.567h19.484a.284.284 0 1 1 0 .567h-19.484Zm-.982 1.425a.4.4 0 0 1 0-.8h20.149a.4.4 0 1 1 0 .8h-20.149Zm-.653 1.192a.284.284 0 1 1 0-.567h19.614a.283.283 0 0 1 0 .567H126.25Zm-.655 1.525a.5.5 0 0 1 0-1h20.031a.5.5 0 0 1 0 1h-20.031Zm-.654.764a.283.283 0 0 1 0-.567h21.081a.284.284 0 1 1 0 .567h-21.081Zm-.327 1.375a.35.35 0 0 1 0-.7h22.676a.35.35 0 0 1 0 .7h-22.676Zm.981.915a.283.283 0 0 1 0-.567h22.012a.283.283 0 0 1 0 .567h-22.012Zm1.308.981a.283.283 0 0 1 0-.567h21.1a.283.283 0 0 1 0 .567h-21.1Zm.655 1.308a.284.284 0 1 1 0-.566h20.524a.284.284 0 1 1 0 .566h-20.524Zm.327 1.149a.45.45 0 1 1 0-.9h19.88a.45.45 0 1 1 0 .9h-19.88Zm1.308.814a.283.283 0 0 1 0-.567h18.651a.284.284 0 1 1 0 .567h-18.651Zm1.309 1.308a.284.284 0 1 1 0-.567h17.263a.284.284 0 1 1 0 .567h-17.263Zm.981.981a.284.284 0 1 1 0-.567h16.441a.283.283 0 0 1 0 .567h-16.441Zm.981 1.148a.45.45 0 1 1 0-.9h15.46a.45.45 0 0 1 0 .9h-15.46Zm.654.815a.284.284 0 1 1 0-.567h14.885a.283.283 0 0 1 0 .567h-14.885Zm.981.981a.283.283 0 0 1 0-.567h14.3a.284.284 0 1 1 0 .567h-14.3Zm1.636.981a.284.284 0 1 1 0-.567h12.268a.283.283 0 0 1 0 .567h-12.268Zm.654.654a.284.284 0 1 1 0-.566h11.614a.283.283 0 0 1 0 .567h-11.614Zm1.308.981a.283.283 0 1 1 0-.566h10.544a.283.283 0 0 1 0 .566h-10.544Zm0 .982a.283.283 0 1 1 0-.567h10.95a.284.284 0 1 1 0 .567h-10.95Zm1.308.981a.283.283 0 0 1 0-.567h9.236a.283.283 0 0 1 0 .567h-9.236Zm1.636.818a.284.284 0 1 1 0-.567h8.006a.284.284 0 1 1 0 .567h-8.006Zm0 1.026a.284.284 0 1 1 0-.567h8.006a.284.284 0 1 1 0 .567h-8.006Zm-9.486-44.037a.283.283 0 0 1 0-.566h7.096a.284.284 0 1 1 0 .566h-7.096Zm.982-1.091a.5.5 0 0 1 0-1h6.044a.5.5 0 0 1 0 1h-6.044Zm.654-1.408a.4.4 0 1 1 0-.8h5.336a.4.4 0 1 1 0 .8h-5.336Zm1.635-1.309a.4.4 0 0 1 0-.8h3.725a.4.4 0 0 1 0 .8h-3.725Zm.655-1.408a.3.3 0 1 1 0-.6h2.542a.3.3 0 0 1 0 .6h-2.542Zm.326-1.408a.2.2 0 0 1 0-.4h2.216a.2.2 0 0 1 0 .4h-2.216Zm121.338-2.795a.283.283 0 0 1 0-.567h27.559a.283.283 0 0 1 0 .567h-27.559Zm1.962 1.308a.283.283 0 0 1 0-.567h27.559a.284.284 0 1 1 0 .567h-27.559Zm0 .981a.283.283 0 0 1 0-.567h28.903a.284.284 0 1 1 0 .567h-28.903Zm-.327 1.309a.283.283 0 0 1 0-.567h30.899a.283.283 0 0 1 0 .567H258.38Zm-.981.981a.283.283 0 0 1 0-.567h33.27a.283.283 0 0 1 0 .567h-33.27Zm-.981.981a.284.284 0 1 1 0-.567h35.363a.284.284 0 1 1 0 .567h-35.363Zm-.981 1.308a.284.284 0 1 1 0-.567h37.271a.284.284 0 1 1 0 .567h-37.271Zm0 1.525a.5.5 0 0 1 0-1h39.681a.5.5 0 0 1 0 1h-39.681Zm.981 1.092a.284.284 0 1 1 0-.567h40.368a.284.284 0 1 1 0 .567h-40.368Zm.981.981a.283.283 0 0 1 0-.567h40.314a.284.284 0 1 1 0 .567h-40.314Zm.981 1.525a.5.5 0 0 1 0-1h39.982a.5.5 0 0 1 0 1H258.38Zm.655.765a.284.284 0 1 1 0-.567h40.81a.284.284 0 1 1 0 .567h-40.81Zm0 1.308a.284.284 0 1 1 0-.567h42.108a.283.283 0 0 1 0 .567h-42.108Zm2.289 1.635a.283.283 0 0 1 0-.567h42.692a.284.284 0 1 1 0 .567h-42.692Zm1.635.982a.283.283 0 0 1 0-.567h43.374a.284.284 0 1 1 0 .567h-43.374Zm.328 1.525a.5.5 0 1 1 0-1h44.993a.5.5 0 0 1 0 1h-44.993Zm.654 1.091a.284.284 0 1 1 0-.567h46.193a.283.283 0 0 1 0 .567h-46.193Zm1.635.981a.283.283 0 0 1 0-.567h45.021a.283.283 0 1 1 0 .567h-45.021Zm0 1.308a.283.283 0 0 1 0-.566h45.855a.284.284 0 1 1 0 .566h-45.855Zm-.327.982a.284.284 0 1 1 0-.567h47.387a.283.283 0 0 1 0 .567h-47.387Zm-.981 1.525a.5.5 0 1 1 0-1h50.593a.5.5 0 0 1 0 1h-50.593Zm1.308.764a.283.283 0 0 1 0-.566h51.231a.284.284 0 1 1 0 .566h-51.231Zm.981 1.309a.283.283 0 0 1 0-.567h53.216a.284.284 0 1 1 0 .567h-53.216Zm.654 1.197a.5.5 0 0 1 0-1h55.065a.5.5 0 0 1 0 1h-55.065Zm.327 1.093a.283.283 0 0 1 0-.568h57.055a.284.284 0 1 1 0 .567h-57.055Zm1.309 1.144a.284.284 0 1 1 0-.567h58.897a.284.284 0 1 1 0 .567h-58.897Zm12.417.981a.284.284 0 1 1 0-.567h49.533a.283.283 0 0 1 0 .567h-49.533Zm-12.417 0a.284.284 0 1 1 0-.567h10.977a.284.284 0 1 1 0 .567h-10.977Zm12.646 1.475a.45.45 0 1 1 0-.9h52.276a.45.45 0 1 1 0 .9h-52.276Zm-11.011 0a.45.45 0 1 1 0-.9h8.323a.45.45 0 0 1 0 .9h-8.323Zm11.474.815a.283.283 0 0 1 0-.567h53.574a.284.284 0 1 1 0 .567h-53.574Zm-9.511 0a.284.284 0 1 1 0-.567h5.711a.283.283 0 0 1 0 .567h-5.711Zm10.258.981a.283.283 0 0 1 0-.567h54.681a.283.283 0 0 1 0 .567h-54.681Zm-8.95 0a.284.284 0 1 1 0-.567h2.642a.284.284 0 1 1 0 .567h-2.642Zm9.158 1.144a.283.283 0 0 1 0-.566h57.161a.284.284 0 1 1 0 .567h-57.161Zm.327.982a.284.284 0 1 1 0-.567h58.898a.283.283 0 0 1 0 .567h-58.898Zm.327 1.625a.6.6 0 0 1 0-1.2h60.678a.6.6 0 0 1 0 1.2h-60.678Zm.327.991a.283.283 0 0 1 0-.566h62.668a.284.284 0 1 1 0 .566h-62.668Zm0 .982a.283.283 0 0 1 0-.567h64.244a.283.283 0 0 1 0 .567h-64.244Zm.654 1.525a.5.5 0 0 1 0-1h66.37a.5.5 0 1 1 0 1h-66.37Zm.655 1.091a.284.284 0 1 1 0-.566h67.755a.283.283 0 0 1 0 .566h-67.755Zm.981 1.309a.284.284 0 1 1 0-.567h69.091a.283.283 0 1 1 0 .567h-69.091Zm3.597 1.308a.283.283 0 0 1 0-.567h66.977a.283.283 0 0 1 0 .567h-66.977Zm2.29.981a.284.284 0 1 1 0-.567h65.985a.283.283 0 0 1 0 .567h-65.985Zm1.962.982a.283.283 0 0 1 0-.567h65.32a.284.284 0 1 1 0 .566h-65.32Zm1.309 1.147a.45.45 0 1 1 0-.9h65.439a.45.45 0 0 1 0 .9H295.34Zm1.308.815a.283.283 0 0 1 0-.567h65.021a.283.283 0 0 1 0 .567h-65.021Zm.654 1.308a.283.283 0 0 1 0-.567H363.8a.284.284 0 1 1 0 .567h-66.498Zm4.579.983a.283.283 0 0 1 0-.567h63.41a.283.283 0 0 1 0 .567h-63.41Zm1.636 1.36a.5.5 0 0 1 0-1h63.799a.5.5 0 0 1 0 1h-63.799Zm1.308 1.071a.284.284 0 1 1 0-.567h63.708a.283.283 0 0 1 0 .567h-63.708Zm-49.192-54.437a.284.284 0 1 1 0-.567h26.787a.283.283 0 0 1 0 .567h-26.787Zm-1.02-1.309a.283.283 0 0 1 0-.567h25.86a.284.284 0 1 1 0 .567h-25.86Zm0-1.092a.5.5 0 0 1 0-1h23.173a.5.5 0 0 1 0 1h-23.173Zm-.327-1.524a.284.284 0 1 1 0-.567h21.831a.283.283 0 0 1 0 .567h-21.831Zm-.981-.982a.284.284 0 1 1 0-.567h20.958a.284.284 0 1 1 0 .567h-20.958Zm2.617-.864a.4.4 0 1 1 0-.8h16.858a.4.4 0 1 1 0 .8h-16.858Zm.981-1.425a.284.284 0 1 1 0-.567h13.56a.283.283 0 0 1 0 .567h-13.56Zm1.308-.815a.45.45 0 1 1 0-.9h10.213a.45.45 0 0 1 0 .9h-10.213Zm-.981-1.475a.284.284 0 1 1 0-.567h9.526a.283.283 0 0 1 0 .567h-9.526Zm-1.963-1.091a.5.5 0 0 1 0-1h8.74a.5.5 0 0 1 0 1h-8.74Zm.981-1.526a.283.283 0 0 1 0-.566h6.058a.284.284 0 1 1 0 .567h-6.058Zm-29.592 38.018a.283.283 0 0 1 0-.566h6.635a.284.284 0 1 1 0 .566h-6.635Zm-.327 1.636a.283.283 0 0 1 0-.567h3.037a.284.284 0 1 1 0 .567h-3.037Zm-1.308.981a.283.283 0 0 1 0-.567h1.682a.283.283 0 0 1 0 .567h-1.682Zm-1.635.981a.284.284 0 1 1 0-.567h2.663a.283.283 0 0 1 0 .567h-2.663Zm-.281 1.148a.45.45 0 0 1 0-.9h1.878a.45.45 0 1 1 0 .9h-1.878Zm-.701.815a.283.283 0 0 1 0-.567h1.541a.283.283 0 1 1 0 .567h-1.541Zm-.327 1.308a.283.283 0 0 1 0-.567h1.028a.284.284 0 1 1 0 .567h-1.028Zm-1.308.981a.283.283 0 0 1 0-.567h2.336a.284.284 0 1 1 0 .567h-2.336Zm-.981 1.525a.5.5 0 0 1 0-1h2.336a.5.5 0 0 1 0 1h-2.336Zm-.981.765a.284.284 0 1 1 0-.567h3.062a.283.283 0 0 1 0 .567h-3.062Zm-.982 1.309a.283.283 0 0 1 0-.567h3.525a.283.283 0 0 1 0 .567h-3.525Zm-.327.653a.283.283 0 0 1 0-.567h3.852a.283.283 0 0 1 0 .567h-3.852Zm-2.289.983a.284.284 0 1 1 0-.567h7.958a.283.283 0 0 1 0 .567h-7.958Zm-1.963.98a.283.283 0 0 1 0-.567h14.419a.284.284 0 1 1 0 .567h-14.419Zm-2.616 1.308a.284.284 0 1 1 0-.567h21.793a.284.284 0 1 1 0 .567H210.63Zm-2.944 1.148a.45.45 0 1 1 0-.9h30.188a.45.45 0 0 1 0 .9h-30.188Zm-2.944.814a.283.283 0 0 1 0-.566h38.063a.284.284 0 1 1 0 .566h-38.063Zm-1.962 1.049a.35.35 0 0 1 0-.7h43.313a.35.35 0 0 1 0 .7H202.78Zm-1.963.914a.283.283 0 0 1 0-.567h48.044a.284.284 0 1 1 0 .567h-48.044Zm-2.289 1.198a.5.5 0 0 1 0-1h60.023a.5.5 0 0 1 0 1h-60.023Zm-.981 1.092a.284.284 0 1 1 0-.567h70.261a.284.284 0 1 1 0 .566h-70.261Zm-1.635 1.308a.284.284 0 1 1 0-.567h78.038a.284.284 0 1 1 0 .567h-78.038Zm-1.309.654a.283.283 0 0 1 0-.567h84.192a.284.284 0 1 1 0 .567h-84.192Zm-.654.982a.283.283 0 0 1 0-.568h88.134a.283.283 0 0 1 0 .567h-88.134Zm-2.289.653a.284.284 0 1 1 0-.567h93.71a.284.284 0 1 1 0 .567h-93.71Zm-2.29 1.161a.45.45 0 1 1 0-.9h98.596a.45.45 0 0 1 0 .9H189.37Zm-.654.802a.284.284 0 1 1 0-.567h102.277a.284.284 0 1 1 0 .567H188.716Zm-1.963 1.374a.283.283 0 0 1 0-.567h107.182a.283.283 0 0 1 0 .567H186.753Zm40.558-29.613a.5.5 0 0 1 0-1h6.634a.5.5 0 0 1 0 1h-6.634Zm1.308-1.525a.284.284 0 1 1 0-.567h6.635a.283.283 0 0 1 0 .567h-6.635Zm1.635-.982a.283.283 0 0 1 0-.566h6.149a.284.284 0 1 1 0 .567h-6.149Zm1.963-1.064a.2.2 0 0 1 0-.4h4.446a.2.2 0 0 1 0 .4h-4.446Zm4.1-.704a.15.15 0 1 1 0-.3h1.624a.15.15 0 1 1 0 .3h-1.624Z" clip-rule="evenodd"/>
</svg>
